<?xml version="1.0" encoding="UTF-8"?>
<svg xmlns="http://www.w3.org/2000/svg" xmlns:xlink="http://www.w3.org/1999/xlink" width="50px" height="50px" viewBox="0 0 50 50" version="1.1">
<g id="surface1">
<rect x="0" y="0" width="50" height="50" style="fill:rgb(100%,100%,100%);fill-opacity:0.0117647;stroke:none;"/>
<path style="fill-rule:nonzero;fill:rgb(18.431373%,53.333333%,100%);fill-opacity:1;stroke-width:4;stroke-linecap:butt;stroke-linejoin:round;stroke:rgb(0%,0%,0%);stroke-opacity:1;stroke-miterlimit:4;" d="M 18.285 43.17 C 14.9325 42.1725 11.95125 40.32 9.58875 37.8675 C 10.47 36.82125 10.99875 35.475 10.99875 34.00125 C 10.99875 30.68625 8.31375 28.00125 4.99875 28.00125 C 4.8 28.00125 4.60125 28.00875 4.40625 28.0275 C 4.14 26.72625 4.00125 25.38 4.00125 24 C 4.00125 21.91125 4.32 19.89375 4.91625 18 C 4.9425 18 4.9725 18 4.99875 18 C 8.31375 18 10.99875 15.315 10.99875 12 C 10.99875 11.0475 10.7775 10.1475 10.38375 9.34875 C 12.6975 7.2 15.52125 5.59125 18.6525 4.72125 C 19.64625 6.6675 21.6675 7.99875 24 7.99875 C 26.3325 7.99875 28.35375 6.6675 29.3475 4.72125 C 32.47875 5.59125 35.3025 7.2 37.61625 9.34875 C 37.2225 10.1475 37.00125 11.0475 37.00125 12 C 37.00125 15.315 39.68625 18 43.00125 18 C 43.0275 18 43.0575 18 43.08375 18 C 43.68 19.89375 43.99875 21.91125 43.99875 24 C 43.99875 25.38 43.86 26.72625 43.59375 28.0275 C 43.39875 28.00875 43.2 28.00125 43.00125 28.00125 C 39.68625 28.00125 37.00125 30.68625 37.00125 34.00125 C 37.00125 35.475 37.53 36.82125 38.41125 37.8675 C 36.04875 40.32 33.0675 42.1725 29.715 43.17 C 28.9425 40.75125 26.6775 39 24 39 C 21.3225 39 19.0575 40.75125 18.285 43.17 Z M 18.285 43.17 " transform="matrix(1.041667,0,0,1.041667,0,0)"/>
<path style="fill-rule:nonzero;fill:rgb(26.27451%,80%,97.254902%);fill-opacity:1;stroke-width:4;stroke-linecap:butt;stroke-linejoin:round;stroke:rgb(100%,100%,100%);stroke-opacity:1;stroke-miterlimit:4;" d="M 24 31.00125 C 27.86625 31.00125 31.00125 27.86625 31.00125 24 C 31.00125 20.13375 27.86625 16.99875 24 16.99875 C 20.13375 16.99875 16.99875 20.13375 16.99875 24 C 16.99875 27.86625 20.13375 31.00125 24 31.00125 Z M 24 31.00125 " transform="matrix(1.041667,0,0,1.041667,0,0)"/>
</g>
</svg>
