<?xml version="1.0" encoding="UTF-8"?>
<svg xmlns="http://www.w3.org/2000/svg" xmlns:xlink="http://www.w3.org/1999/xlink" width="50px" height="50px" viewBox="0 0 50 50" version="1.1">
<g id="surface1">
<rect x="0" y="0" width="50" height="50" style="fill:rgb(100%,100%,100%);fill-opacity:0.0117647;stroke:none;"/>
<path style="fill-rule:nonzero;fill:rgb(18.431373%,53.333333%,100%);fill-opacity:1;stroke-width:4;stroke-linecap:round;stroke-linejoin:round;stroke:rgb(0%,0%,0%);stroke-opacity:1;stroke-miterlimit:4;" d="M 4.00125 12 L 43.99875 12 L 43.99875 19.99875 L 42.6 20.83875 C 40.38375 22.17 37.61625 22.17 35.4 20.83875 L 34.00125 19.99875 L 32.6025 20.83875 C 30.38625 22.17 27.615 22.17 25.39875 20.83875 L 24 19.99875 L 22.60125 20.83875 C 20.385 22.17 17.61375 22.17 15.3975 20.83875 L 13.99875 19.99875 L 12.6 20.83875 C 10.38375 22.17 7.61625 22.17 5.4 20.83875 L 4.00125 19.99875 Z M 4.00125 12 " transform="matrix(1.041667,0,0,1.041667,0,0)"/>
<path style="fill:none;stroke-width:4;stroke-linecap:round;stroke-linejoin:round;stroke:rgb(0%,0%,0%);stroke-opacity:1;stroke-miterlimit:4;" d="M 7.99875 22.48875 L 7.99875 43.99875 L 40.00125 43.99875 L 40.00125 22.00125 " transform="matrix(1.041667,0,0,1.041667,0,0)"/>
<path style="fill:none;stroke-width:4;stroke-linecap:round;stroke-linejoin:round;stroke:rgb(0%,0%,0%);stroke-opacity:1;stroke-miterlimit:4;" d="M 7.99875 11.82375 L 7.99875 4.00125 L 40.00125 4.00125 L 40.00125 12 " transform="matrix(1.041667,0,0,1.041667,0,0)"/>
<path style="fill-rule:nonzero;fill:rgb(18.431373%,53.333333%,100%);fill-opacity:1;stroke-width:4;stroke-linecap:round;stroke-linejoin:round;stroke:rgb(0%,0%,0%);stroke-opacity:1;stroke-miterlimit:4;" d="M 19.00125 31.99875 L 28.99875 31.99875 L 28.99875 43.99875 L 19.00125 43.99875 Z M 19.00125 31.99875 " transform="matrix(1.041667,0,0,1.041667,0,0)"/>
</g>
</svg>
